<svg xmlns="http://www.w3.org/2000/svg" version="1.1" xmlns:xlink="http://www.w3.org/1999/xlink" xmlns:svgjs="http://svgjs.dev/svgjs" width="1000" height="1000" viewBox="0 0 1000 1000"><rect width="1000" height="1000" fill="#ffffff"></rect><g transform="matrix(0.7,0,0,0.7,149.57575757575756,282.1265587044535)"><svg viewBox="0 0 396 247" data-background-color="#ffffff" preserveAspectRatio="xMidYMid meet" height="623" width="1000" xmlns="http://www.w3.org/2000/svg" xmlns:xlink="http://www.w3.org/1999/xlink"><g id="tight-bounds" transform="matrix(1,0,0,1,0.2400000000000091,-0.09999999999999432)"><svg viewBox="0 0 395.52 247.2" height="247.2" width="395.52"><g><svg></svg></g><g><svg viewBox="0 0 395.52 247.2" height="247.2" width="395.52"><g transform="matrix(1,0,0,1,125.6743445026178,47.215199999999996)"><svg viewBox="0 0 144.17131099476438 152.7696" height="152.7696" width="144.17131099476438"><g><svg viewBox="0 0 144.17131099476438 152.7696" height="152.7696" width="144.17131099476438"><g><svg viewBox="0 0 144.1713109947644 152.76960000000003" height="152.7696" width="144.17131099476438"><g><svg viewBox="0 0 144.1713109947644 152.76960000000003" height="152.76960000000003" width="144.1713109947644"><g id="textblocktransform"><svg viewBox="0 0 144.1713109947644 152.76960000000003" height="152.76960000000003" width="144.1713109947644" id="textblock"><g><svg viewBox="0 0 144.1713109947644 152.76960000000003" height="152.76960000000003" width="144.1713109947644"><g transform="matrix(1,0,0,1,0,0)"><svg width="144.1713109947644" viewBox="3.5199999809265137 -36.22999954223633 35.20000076293945 37.29999923706055" height="152.76960000000003" data-palette-color="#ed2647"><path d="M38.72-24.56L38.72-24.56Q38.72-20.56 36.28-18.26 33.84-15.97 29.83-15.77L29.83-15.77Q34.67-7.71 38.28 0.73L38.28 0.73 24.02 1.07Q23.63-2.88 22.85-6.2 22.07-9.52 20.65-13.18L20.65-13.18Q19.04-13.09 17.46-12.94 15.87-12.79 14.31-12.7L14.31-12.7 14.55-1.61Q11.77-1.46 8.98-1.46L8.98-1.46Q7.57-1.46 6.23-1.51 4.88-1.56 3.52-1.71L3.52-1.71Q3.86-6.2 4.15-10.67 4.44-15.14 4.49-19.58L4.49-19.58Q4.64-27.49 4.93-35.4L4.93-35.4Q9.52-35.64 14.09-35.94 18.65-36.23 23.24-36.23L23.24-36.23Q24.41-36.23 25.78-36.18 27.15-36.13 28.54-35.91 29.93-35.69 31.23-35.3 32.52-34.91 33.54-34.28L33.54-34.28Q36.04-32.71 37.38-30.1 38.72-27.49 38.72-24.56ZM27.39-25.34L27.39-25.34Q27.39-25.73 27.37-26.42 27.34-27.1 27.25-27.81 27.15-28.52 26.95-29.13 26.76-29.74 26.42-30.03L26.42-30.03Q26.17-30.22 25.59-30.32 25-30.42 24.34-30.49 23.68-30.57 23.07-30.59 22.46-30.62 22.22-30.62L22.22-30.62Q20.26-30.62 18.38-30.42 16.5-30.22 14.65-29.93L14.65-29.93 15.97-20.46Q17.04-20.21 18.21-20.12 19.38-20.02 20.51-20.02L20.51-20.02Q21-20.02 21.95-20.07 22.9-20.12 23.9-20.26 24.9-20.41 25.76-20.68 26.61-20.95 26.95-21.39L26.95-21.39Q27.1-21.58 27.2-22.14 27.29-22.71 27.32-23.32 27.34-23.93 27.37-24.51 27.39-25.1 27.39-25.34Z" opacity="1" transform="matrix(1,0,0,1,0,0)" fill="#ed2647" class="undefined-text-0" data-fill-palette-color="primary" id="text-0"></path></svg></g></svg></g></svg></g></svg></g></svg></g></svg></g></svg></g><g><path d="M195.686 0c30.402 0 58.24 10.976 79.768 29.183l-11.147 0c-19.26-14.022-42.974-22.294-68.621-22.295-25.647 0-49.361 8.272-68.621 22.295l-11.148 0c21.528-18.206 49.366-29.183 79.769-29.183zM195.686 247.2c-30.402 0-58.24-10.976-79.769-29.183l11.148 0c19.26 14.022 42.974 22.294 68.621 22.295 25.647 0 49.361-8.272 68.621-22.295l11.147 0c-21.528 18.206-49.366 29.183-79.768 29.183z" fill="#ed2647" stroke="transparent" data-fill-palette-color="tertiary"></path></g></svg></g><defs></defs></svg><rect width="395.52" height="247.2" fill="none" stroke="none" visibility="hidden"></rect></g></svg></g></svg>